{"title":"[JRR] Sword Art Online II - 20 [Eng Subbed] [SD] [AnimeRG].mp4","uid":11542310,"size":59349305,"categoryP":"video","categoryS":"tv_shows","magnet":"?xt=urn:btih:08457cf7b4d00fc93a4f1394372172cd7b942494&amp;dn=%5BJRR%5D+Sword+Art+Online+II+-+20+%5BEng+Subbed%5D+%5BSD%5D+%5BAnimeRG%5D.mp4&amp;tr=udp%3A%2F%2Ftracker.openbittorrent.com%3A80&amp;tr=udp%3A%2F%2Fopen.demonii.com%3A1337&amp;tr=udp%3A%2F%2Ftracker.coppersurfer.tk%3A6969&amp;tr=udp%3A%2F%2Fexodus.desync.com%3A6969","seeders":2,"leechers":0,"uploader":"JRRtv","files":1,"time":1416679842,"description":"[b]General[/b] \nFormat : MPEG-4 \nFile size : 56.6 MiB \nOverall bit rate : 334 Kbps \n\n[b]Video[/b] \nFormat : AVC \nFormat/Info : Advanced Video Codec \nWidth : 576 pixels \nHeight : 320 pixels \nDisplay aspect ratio : 16:9 \nFrame rate : 23.976 fps \nBit depth : 8 bits \nStream size : 46.2 MiB (82%) \n\n[b]Audio[/b] \nFormat : AAC \nFormat/Info : Advanced Audio Codec  \nChannel(s) : 2 channels \nSampling rate : 44.1 KHz \nCompression mode : Lossy \nStream size : 9.48 MiB (17%) \n\n[b]Subs[/b]\nEnglish HardSubbed Crunchyroll\n\n[b]Screens[/b]\n[IMG]http://i.imgur.com/NAhAzde.png[/IMG]\n[IMG]http://i.imgur.com/QL3fJr3.png[/IMG]\n[IMG]http://i.imgur.com/iu9qXza.png[/IMG]","torrent":{"xt":"urn:btih:08457cf7b4d00fc93a4f1394372172cd7b942494","amp;dn":"%5BJRR%5D+Sword+Art+Online+II+-+20+%5BEng+Subbed%5D+%5BSD%5D+%5BAnimeRG%5D.mp4","amp;tr":["udp%3A%2F%2Ftracker.openbittorrent.com%3A80","udp%3A%2F%2Fopen.demonii.com%3A1337","udp%3A%2F%2Ftracker.coppersurfer.tk%3A6969","udp%3A%2F%2Fexodus.desync.com%3A6969"],"infoHash":"08457cf7b4d00fc93a4f1394372172cd7b942494","infoHashBuffer":{"type":"Buffer","data":[8,69,124,247,180,208,15,201,58,79,19,148,55,33,114,205,123,148,36,148]},"announce":[],"urlList":[]}}